# xmcd
#
# Track frame offsets:
#	150
#	17210
#	33187
#	50454
#	67868
#	85945
#	101622
#	120172
#	135774
#	153837
#	171146
#	186458
#	205549
#	222801
#	239549
#	257263
#	274385
#	293512
#
# Disc length: 4125 seconds
#
# Revision: 0
# Processed by: cddbd v1.5.2PL0 Copyright (c) Steve Scherf et al.
# Submitted via: EasyCDDAExtractor 16.0.9.1
#
DISCID=e8101b12
DTITLE=Various Artist - DJ Hits Vol.9
DYEAR=1997
DGENRE=Euro-House
TTITLE0=Backstreet Boys - Everybody
TTITLE1=Robin Cook - Comanchero
TTITLE2=Will Smith - Men In Black
TTITLE3=Garcia - Bamboleo
TTITLE4=Daisy Dee - Hey Yoo
TTITLE5=Grandmaster Mele-Mel and Scorpio - Mr. Big Stuff
TTITLE6=Down Low - Moonlight
TTITLE7=Errol Dunkley - O.K. Fred '97
TTITLE8=Hoodys - Every Hour
TTITLE9=Michael Jackson - Ghost
TTITLE10=Kiriman - You Are My Sunshine
TTITLE11=Uprising - Sing Aloha He (Radio Mix)
TTITLE12=Samira - The Rain
TTITLE13=2 Toghether - Summertime Is Here
TTITLE14=Freestyle Project - Rock You Body
TTITLE15=Simone Jay - Wanna B Like A Man
TTITLE16=The Sun Club - Fiesta
TTITLE17=DJ Sammy feat. Carisma - Prince Of Love
EXTD=
EXTT0=
EXTT1=
EXTT2=
EXTT3=
EXTT4=
EXTT5=
EXTT6=
EXTT7=
EXTT8=
EXTT9=
EXTT10=
EXTT11=
EXTT12=
EXTT13=
EXTT14=
EXTT15=
EXTT16=
EXTT17=
PLAYORDER=
